<?xml version="1.0" encoding="UTF-8"?>
<svg id="Layer_2" data-name="Layer 2" xmlns="http://www.w3.org/2000/svg" viewBox="0 0 384.81 374.99">
  <defs>
    <style>
      .cls-1 {
        fill: #320000;
      }

      .cls-2 {
        fill: #ff9a00;
      }
    </style>
  </defs>
  <g id="Layer_3" data-name="Layer 3">
    <g>
      <rect class="cls-1" width="384.81" height="374.99" rx="64.95" ry="64.95"/>
      <g>
        <path class="cls-2" d="M126.38,220.78l-14.43,46.61c-.55,1.39-1.39,1.94-2.77,1.94h-26.63c-1.66,0-2.22-.83-1.66-2.5l52.99-162.29c1.11-2.77,1.94-5.55,2.22-14.43,0-1.11.56-1.94,1.66-1.94h37.17c1.11,0,1.66.28,1.94,1.66l59.64,177.27c.28,1.39,0,2.22-1.66,2.22h-29.68c-1.39,0-1.94-.55-2.5-1.66l-15.26-46.88h-61.03ZM179.37,191.65c-5.27-18.59-17.75-56.59-22.47-76.29h-.28c-4.44,18.59-14.43,50.77-22.19,76.29h44.94Z"/>
        <path class="cls-2" d="M254.27,95.39c0-11.1,7.77-18.31,18.31-18.31,11.37,0,18.31,7.49,18.31,18.31,0,11.37-7.49,18.31-18.59,18.31s-18.03-7.21-18.03-18.31ZM256.21,134.51c0-1.39.55-1.94,2.22-1.94h28.02c1.66,0,2.22.28,2.22,1.94v132.6c0,1.66-.56,2.22-2.22,2.22h-27.74c-1.66,0-2.5-.83-2.5-2.22v-132.6Z"/>
      </g>
    </g>
  </g>
</svg>