<?xml version="1.0" encoding="UTF-8"?>
<svg id="Layer_2" data-name="Layer 2" xmlns="http://www.w3.org/2000/svg" viewBox="0 0 383.44 373.65">
  <defs>
    <style>
      .cls-1 {
        fill: #002039;
      }

      .cls-2 {
        fill: #36adfd;
      }
    </style>
  </defs>
  <g id="Layer_4" data-name="Layer 4">
    <g>
      <rect class="cls-1" width="383.44" height="373.65" rx="64.72" ry="64.72"/>
      <g>
        <path class="cls-2" d="M83.64,90.35c0-1.38.28-2.21,1.66-2.21,10.5-.28,29.3-.83,47.82-.83,50.59,0,70.76,28.47,70.76,59.43,0,42.85-32.62,62.2-72.7,62.2-7.74,0-10.23-.28-15.76-.28v57.77c0,1.38-.55,1.93-1.93,1.93h-27.92c-1.38,0-1.93-.55-1.93-1.93V90.35ZM115.43,180.19c4.42.28,7.74.28,15.76.28,21.84,0,40.91-7.74,40.91-33.17,0-20.18-13.82-31.79-37.87-31.79-8.57,0-15.76.28-18.8.55v64.13Z"/>
        <path class="cls-2" d="M271.05,155.86c-14.1,0-18.8,6.08-18.8,11.89s3.59,10.23,21.28,18.24c29.3,11.89,39.25,24.33,39.25,43.12,0,26.26-20.73,41.74-51.97,41.74-15.76,0-29.02-2.76-37.04-7.19-1.38-.83-1.66-1.66-1.66-3.04v-25.71c0-1.38.83-1.93,1.94-1.11,11.61,7.19,25.43,10.5,37.04,10.5,14.1,0,20.45-5.25,20.45-12.72,0-6.36-4.7-11.33-21.84-18.8-27.37-11.33-37.59-23.5-37.59-43.12,0-21.28,16.86-40.08,49.2-40.08,15.2,0,26.54,2.21,32.89,5.25,1.38.83,1.38,1.94,1.38,3.32v23.5c0,1.66-.83,2.49-2.49,1.66-8.02-4.42-20.46-7.46-32.06-7.46Z"/>
      </g>
    </g>
  </g>
</svg>